<svg width="49" height="48" viewBox="0 0 49 48" fill="none" xmlns="http://www.w3.org/2000/svg">
<g id="streamline-emojis:cocktail-glass">
<path id="Vector" opacity="0.15" d="M14.5 45.5C14.5 45.8978 15.5536 46.2794 17.4289 46.5607C19.3043 46.842 21.8478 47 24.5 47C27.1522 47 29.6957 46.842 31.5711 46.5607C33.4464 46.2794 34.5 45.8978 34.5 45.5C34.5 45.1022 33.4464 44.7206 31.5711 44.4393C29.6957 44.158 27.1522 44 24.5 44C21.8478 44 19.3043 44.158 17.4289 44.4393C15.5536 44.7206 14.5 45.1022 14.5 45.5Z" fill="#45413C"/>
<path id="Vector_2" d="M33.64 43.35C33.08 42.28 30.28 41.42 26.64 41.17C26.418 41.1572 26.2094 41.0599 26.0569 40.8981C25.9044 40.7364 25.8196 40.5223 25.82 40.3V25.3H23.18V40.3C23.1803 40.5223 23.0956 40.7364 22.9431 40.8981C22.7906 41.0599 22.5819 41.1572 22.36 41.17C18.72 41.42 15.92 42.28 15.36 43.35C15.3363 43.3999 15.3226 43.454 15.3199 43.5091C15.3171 43.5643 15.3252 43.6195 15.3438 43.6715C15.3624 43.7235 15.391 43.7713 15.4281 43.8123C15.4652 43.8532 15.51 43.8864 15.56 43.91C16.42 44.35 19.17 45.5 24.5 45.5C29.83 45.5 32.58 44.35 33.44 43.91C33.4899 43.8864 33.5347 43.8532 33.5718 43.8123C33.6089 43.7713 33.6376 43.7235 33.6561 43.6715C33.6747 43.6195 33.6828 43.5643 33.6801 43.5091C33.6773 43.454 33.6637 43.3999 33.64 43.35Z" fill="#00B8F0" stroke="#45413C" stroke-linecap="round" stroke-linejoin="round"/>
<path id="Vector_3" d="M41.67 10.73C41.67 8.54001 33.98 6.73001 24.5 6.73001C15.02 6.73001 7.32996 8.50001 7.32996 10.73V12.57C7.34013 12.9562 7.43496 13.3355 7.60775 13.6811C7.78054 14.0267 8.02708 14.3301 8.32996 14.57L22.33 26.1C22.33 26.1 22.33 27.86 24.53 27.86C26.73 27.86 26.73 26.1 26.73 26.1L40.73 14.57C41.0328 14.3301 41.2794 14.0267 41.4522 13.6811C41.625 13.3355 41.7198 12.9562 41.73 12.57L41.67 10.73Z" fill="#00B8F0"/>
<path id="Vector_4" d="M34.32 7.47999C31.0702 6.98715 27.7868 6.74976 24.5 6.76999C15.02 6.76999 7.32996 8.53999 7.32996 10.77V12.61C7.34013 12.9962 7.43496 13.3755 7.60775 13.7211C7.78054 14.0667 8.02708 14.3701 8.32996 14.61L20.66 24.79C26.3602 20.0256 31.0113 14.1317 34.32 7.47999Z" fill="#4ACFFF"/>
<path id="Vector_5" d="M7.32996 10.73C7.32996 11.25 7.77407 11.765 8.63694 12.2454C9.49982 12.7259 10.7646 13.1624 12.3589 13.5301C13.9533 13.8979 15.8461 14.1895 17.9293 14.3886C20.0124 14.5876 22.2452 14.69 24.5 14.69C26.7548 14.69 28.9875 14.5876 31.0706 14.3886C33.1538 14.1895 35.0466 13.8979 36.641 13.5301C38.2354 13.1624 39.5001 12.7259 40.363 12.2454C41.2258 11.765 41.67 11.25 41.67 10.73C41.67 9.67973 39.861 8.67249 36.641 7.92985C33.421 7.1872 29.0537 6.76999 24.5 6.76999C19.9462 6.76999 15.5789 7.1872 12.3589 7.92985C9.13893 8.67249 7.32996 9.67973 7.32996 10.73Z" fill="#00B8F0"/>
<path id="Vector_6" d="M41.67 10.73C41.67 8.54001 33.98 6.73001 24.5 6.73001C15.02 6.73001 7.32996 8.50001 7.32996 10.73V12.57C7.34013 12.9562 7.43496 13.3355 7.60775 13.6811C7.78054 14.0267 8.02708 14.3301 8.32996 14.57L22.33 26.1C22.33 26.1 22.33 27.86 24.53 27.86C26.73 27.86 26.73 26.1 26.73 26.1L40.73 14.57C41.0328 14.3301 41.2794 14.0267 41.4522 13.6811C41.625 13.3355 41.7198 12.9562 41.73 12.57L41.67 10.73Z" stroke="#45413C" stroke-linecap="round" stroke-linejoin="round"/>
<path id="Vector_7" d="M35.9401 16L26.2601 23.92C25.7858 24.3985 25.1674 24.7077 24.5001 24.8C23.8327 24.7077 23.2143 24.3985 22.7401 23.92L13.0601 16C13.0601 16 16.1401 14.25 24.5001 14.25C32.8601 14.25 35.9401 16 35.9401 16Z" fill="#C8FFA1"/>
<path id="Vector_8" d="M30.0701 14.56C28.2216 14.3413 26.3614 14.2378 24.5001 14.25C16.1401 14.25 13.0601 16 13.0601 16L22.2001 23.48C25.1742 20.8355 27.8168 17.8404 30.0701 14.56Z" fill="#E4FFD1"/>
<path id="Vector_9" d="M35.9401 16C35.9401 16 32.8601 17.77 24.5001 17.77C16.1401 17.77 13.0601 16 13.0601 16C13.0601 16 16.1401 14.25 24.5001 14.25C32.8601 14.25 35.9401 16 35.9401 16Z" fill="#9CEB60"/>
<path id="Vector_10" d="M27.7501 17.67C28.5801 16.67 29.3501 15.6 30.0701 14.56C28.2216 14.3413 26.3614 14.2378 24.5001 14.25C16.1401 14.25 13.0601 16 13.0601 16C13.0601 16 16.1401 17.77 24.5001 17.77C25.6901 17.77 26.7601 17.73 27.7501 17.67Z" fill="#C8FFA1"/>
<path id="Vector_11" d="M37.6901 6.87C37.3983 7.30345 36.9846 7.64059 36.5012 7.83875C36.0177 8.03691 35.4864 8.08718 34.9744 7.98319C34.4624 7.8792 33.9927 7.62562 33.6249 7.25457C33.2571 6.88352 33.0077 6.41167 32.9082 5.89877C32.8087 5.38587 32.8636 4.85498 33.066 4.37332C33.2684 3.89165 33.6092 3.48087 34.0451 3.19297C34.4811 2.90508 34.9927 2.75302 35.5152 2.75606C36.0376 2.75909 36.5474 2.91707 36.9801 3.21C37.2676 3.40315 37.5142 3.65121 37.7057 3.93994C37.8971 4.22867 38.0296 4.55237 38.0956 4.89246C38.1616 5.23255 38.1597 5.58233 38.0901 5.9217C38.0205 6.26106 37.8846 6.58334 37.6901 6.87Z" fill="#FF6242"/>
<path id="Vector_12" d="M32.91 5.9C32.8444 5.55922 32.8465 5.20885 32.9162 4.86888C32.986 4.52891 33.122 4.20601 33.3165 3.91862C33.7094 3.33819 34.3168 2.93761 35.005 2.805C35.6933 2.6724 36.406 2.81862 36.9864 3.21151C37.5668 3.6044 37.9674 4.21177 38.1 4.9L32.91 5.9Z" fill="#FF866E"/>
<path id="Vector_13" d="M34.0301 7.57999L31.5601 11.23" stroke="#45413C" stroke-linecap="round" stroke-linejoin="round"/>
<path id="Vector_14" d="M33 15.39C32.18 16.6 30.22 16.69 28.6 15.61C26.98 14.53 26.35 12.66 27.17 11.45C27.99 10.24 29.95 10.14 31.56 11.23C33.17 12.32 33.82 14.18 33 15.39Z" fill="#46B000"/>
<path id="Vector_15" d="M27.16 14L33.01 12.87C32.6716 12.216 32.1727 11.6585 31.56 11.25C29.95 10.16 27.98 10.25 27.17 11.47C26.9394 11.8512 26.8166 12.288 26.8148 12.7336C26.8131 13.1792 26.9324 13.6169 27.16 14Z" fill="#6DD627"/>
<path id="Vector_16" d="M33 15.39C32.18 16.6 30.22 16.69 28.6 15.61C26.98 14.53 26.35 12.66 27.17 11.45C27.99 10.24 29.95 10.14 31.56 11.23C33.17 12.32 33.82 14.18 33 15.39Z" stroke="#45413C" stroke-linecap="round" stroke-linejoin="round"/>
<path id="Vector_17" d="M30.04 19.77C29.23 20.97 27.26 21.07 25.65 19.98C24.04 18.89 23.39 17 24.21 15.82C25.03 14.64 26.99 14.52 28.6 15.61C30.21 16.7 30.86 18.56 30.04 19.77Z" fill="#46B000"/>
<path id="Vector_18" d="M24.2 18.36L30.05 17.23C29.7176 16.5718 29.2174 16.013 28.6 15.61C26.99 14.52 25.02 14.61 24.21 15.82C23.9795 16.2032 23.8569 16.6415 23.8551 17.0886C23.8534 17.5358 23.9725 17.9751 24.2 18.36Z" fill="#6DD627"/>
<path id="Vector_19" d="M25.65 19.98C27.26 21.07 29.23 20.97 30.04 19.77C30.86 18.56 30.21 16.7 28.6 15.61C26.99 14.52 25.03 14.64 24.21 15.82C23.39 17 24.04 18.89 25.65 19.98ZM25.65 19.98L24.17 22.17M37.69 6.87C37.3983 7.30345 36.9845 7.64059 36.5011 7.83875C36.0177 8.03691 35.4863 8.08718 34.9743 7.98319C34.4623 7.8792 33.9927 7.62562 33.6249 7.25457C33.2571 6.88352 33.0076 6.41167 32.9081 5.89877C32.8086 5.38587 32.8635 4.85498 33.0659 4.37332C33.2683 3.89165 33.6091 3.48087 34.0451 3.19297C34.4811 2.90508 34.9927 2.75302 35.5151 2.75606C36.0376 2.75909 36.5474 2.91707 36.98 3.21C37.2676 3.40315 37.5142 3.65121 37.7056 3.93994C37.8971 4.22867 38.0296 4.55237 38.0956 4.89246C38.1615 5.23255 38.1597 5.58233 38.0901 5.9217C38.0205 6.26106 37.8845 6.58334 37.69 6.87Z" stroke="#45413C" stroke-linecap="round" stroke-linejoin="round"/>
<path id="Vector_20" d="M41.67 10.73C41.67 12.92 33.98 14.73 24.5 14.73C15.02 14.73 7.32996 12.96 7.32996 10.73" stroke="#45413C" stroke-linecap="round" stroke-linejoin="round"/>
</g>
</svg>
