<svg width="24" height="24" viewBox="0 0 24 24" fill="none" xmlns="http://www.w3.org/2000/svg">
<g id="ion:arrow-undo-circle:hover">
<g clip-path="url(#clip0_119_107)">
<rect width="24" height="24" rx="12" fill="#5299CC"/>
<path id="Vector" d="M12 0C5.37288 0 0 5.37288 0 12C0 18.6271 5.37288 24 12 24C18.6271 24 24 18.6271 24 12C24 5.37288 18.6271 0 12 0ZM17.6348 16.2173C16.2462 14.7629 14.6631 13.9858 11.3706 13.9858V16.1388C11.3702 16.2326 11.3424 16.3241 11.2906 16.4023C11.2388 16.4804 11.1653 16.5416 11.0791 16.5784C10.9929 16.6152 10.8978 16.626 10.8056 16.6094C10.7133 16.5928 10.628 16.5495 10.56 16.485L5.68731 11.8846C5.64033 11.8404 5.6029 11.787 5.57732 11.7278C5.55174 11.6686 5.53854 11.6047 5.53854 11.5402C5.53854 11.4757 5.55174 11.4118 5.57732 11.3526C5.6029 11.2934 5.64033 11.24 5.68731 11.1958L10.5577 6.59365C10.6256 6.5291 10.711 6.48586 10.8033 6.46926C10.8955 6.45266 10.9906 6.46343 11.0768 6.50024C11.163 6.53705 11.2365 6.59829 11.2883 6.6764C11.3401 6.75451 11.3679 6.84608 11.3683 6.93981V9.09288C16.4873 9.09288 18.1425 12.3029 18.4569 15.8481C18.499 16.2935 17.9463 16.5433 17.6348 16.2173Z" fill="white"/>
</g>
<rect x="0.5" y="0.5" width="23" height="23" rx="11.5" stroke="#5299CC"/>
</g>
<defs>
<clipPath id="clip0_119_107">
<rect width="24" height="24" rx="12" fill="white"/>
</clipPath>
</defs>
</svg>
