<svg width="24" height="24" viewBox="0 0 24 24" fill="none" xmlns="http://www.w3.org/2000/svg">
<g id="pepicons-pop:trash-circle-filled" clip-path="url(#clip0_101_117)">
<g id="Group">
<g id="Mask group">
<mask id="mask0_101_117" style="mask-type:luminance" maskUnits="userSpaceOnUse" x="0" y="0" width="24" height="24">
<g id="Group_2">
<path id="Vector" d="M0 0H24V24H0V0Z" fill="white"/>
<g id="Group_3">
<path id="Vector_2" d="M13.788 6.92308H10.212C10.1421 6.65027 10.1355 6.36511 10.1926 6.08934C10.2497 5.81358 10.3691 5.55451 10.5415 5.33189C10.714 5.10928 10.9351 4.92901 11.1878 4.80483C11.4406 4.68066 11.7184 4.61586 12 4.61539C12.2816 4.61586 12.5594 4.68066 12.8122 4.80483C13.0649 4.92901 13.286 5.10928 13.4585 5.33189C13.6309 5.55451 13.7503 5.81358 13.8074 6.08934C13.8645 6.36511 13.8579 6.65027 13.788 6.92308Z" fill="black"/>
<path id="Vector_3" d="M6.92308 7.84615C6.67826 7.84615 6.44347 7.7489 6.27036 7.57579C6.09725 7.40268 6 7.16789 6 6.92308C6 6.67826 6.09725 6.44347 6.27036 6.27036C6.44347 6.09725 6.67826 6 6.92308 6H17.0769C17.3217 6 17.5565 6.09725 17.7296 6.27036C17.9027 6.44347 18 6.67826 18 6.92308C18 7.16789 17.9027 7.40268 17.7296 7.57579C17.5565 7.7489 17.3217 7.84615 17.0769 7.84615H6.92308Z" fill="black"/>
<path id="Vector_4" fill-rule="evenodd" clip-rule="evenodd" d="M16.1538 19.8462C16.3986 19.8462 16.6334 19.7489 16.8065 19.5758C16.9797 19.4027 17.0769 19.1679 17.0769 18.9231V9.23079C17.0769 8.98597 16.9797 8.75118 16.8065 8.57807C16.6334 8.40496 16.3986 8.30771 16.1538 8.30771H7.84614C7.60133 8.30771 7.36654 8.40496 7.19343 8.57807C7.02032 8.75118 6.92307 8.98597 6.92307 9.23079V18.9231C6.92307 19.1679 7.02032 19.4027 7.19343 19.5758C7.36654 19.7489 7.60133 19.8462 7.84614 19.8462H16.1538ZM14.3077 10.6154C14.3077 10.493 14.3563 10.3756 14.4429 10.289C14.5294 10.2025 14.6468 10.1539 14.7692 10.1539C14.8916 10.1539 15.009 10.2025 15.0956 10.289C15.1821 10.3756 15.2308 10.493 15.2308 10.6154V17.0769C15.2308 17.1993 15.1821 17.3167 15.0956 17.4033C15.009 17.4899 14.8916 17.5385 14.7692 17.5385C14.6468 17.5385 14.5294 17.4899 14.4429 17.4033C14.3563 17.3167 14.3077 17.1993 14.3077 17.0769V10.6154ZM12 10.1539C11.8776 10.1539 11.7602 10.2025 11.6736 10.289C11.5871 10.3756 11.5384 10.493 11.5384 10.6154V17.0769C11.5384 17.1993 11.5871 17.3167 11.6736 17.4033C11.7602 17.4899 11.8776 17.5385 12 17.5385C12.1224 17.5385 12.2398 17.4899 12.3263 17.4033C12.4129 17.3167 12.4615 17.1993 12.4615 17.0769V10.6154C12.4615 10.493 12.4129 10.3756 12.3263 10.289C12.2398 10.2025 12.1224 10.1539 12 10.1539ZM8.76922 10.6154C8.76922 10.493 8.81784 10.3756 8.9044 10.289C8.99096 10.2025 9.10835 10.1539 9.23076 10.1539C9.35316 10.1539 9.47056 10.2025 9.55711 10.289C9.64367 10.3756 9.6923 10.493 9.6923 10.6154V17.0769C9.6923 17.1993 9.64367 17.3167 9.55711 17.4033C9.47056 17.4899 9.35316 17.5385 9.23076 17.5385C9.10835 17.5385 8.99096 17.4899 8.9044 17.4033C8.81784 17.3167 8.76922 17.1993 8.76922 17.0769V10.6154Z" fill="black"/>
</g>
</g>
</mask>
<g mask="url(#mask0_101_117)">
<path id="Vector_5" d="M12 24C18.6274 24 24 18.6274 24 12C24 5.37258 18.6274 0 12 0C5.37258 0 0 5.37258 0 12C0 18.6274 5.37258 24 12 24Z" fill="#5299CC"/>
</g>
</g>
</g>
</g>
<defs>
<clipPath id="clip0_101_117">
<rect width="24" height="24" fill="white"/>
</clipPath>
</defs>
</svg>
