<svg width="24" height="24" viewBox="0 0 24 24" fill="none" xmlns="http://www.w3.org/2000/svg">
<g id="teenyicons:edit-circle-solid" clip-path="url(#clip0_101_127)">
<path id="Vector" fill-rule="evenodd" clip-rule="evenodd" d="M0 12C0 8.8174 1.26428 5.76516 3.51472 3.51472C5.76516 1.26428 8.8174 0 12 0C15.1826 0 18.2348 1.26428 20.4853 3.51472C22.7357 5.76516 24 8.8174 24 12C24 15.1826 22.7357 18.2348 20.4853 20.4853C18.2348 22.7357 15.1826 24 12 24C8.8174 24 5.76516 22.7357 3.51472 20.4853C1.26428 18.2348 0 15.1826 0 12ZM13.0336 6.6336C13.1079 6.5591 13.1962 6.49999 13.2934 6.45966C13.3906 6.41933 13.4948 6.39857 13.6 6.39857C13.7052 6.39857 13.8094 6.41933 13.9066 6.45966C14.0038 6.49999 14.0921 6.5591 14.1664 6.6336L17.3664 9.8336C17.4409 9.90791 17.5 9.99619 17.5403 10.0934C17.5807 10.1906 17.6014 10.2948 17.6014 10.4C17.6014 10.5052 17.5807 10.6094 17.5403 10.7066C17.5 10.8038 17.4409 10.8921 17.3664 10.9664L10.7312 17.6H7.2C6.98783 17.6 6.78434 17.5157 6.63431 17.3657C6.48429 17.2157 6.4 17.0122 6.4 16.8V13.2688L13.0336 6.6336Z" fill="#5299CC"/>
</g>
<defs>
<clipPath id="clip0_101_127">
<rect width="24" height="24" fill="white"/>
</clipPath>
</defs>
</svg>
