<svg width="36" height="36" viewBox="0 0 36 36" fill="none" xmlns="http://www.w3.org/2000/svg">
<g id="teenyicons:search-circle-solid:hover">
<g clip-path="url(#clip0_119_14)">
<rect width="36" height="36" rx="18" fill="#5299CC"/>
<path id="Vector" fill-rule="evenodd" clip-rule="evenodd" d="M0 18C0 13.2261 1.89642 8.64773 5.27208 5.27208C8.64773 1.89642 13.2261 0 18 0C22.7739 0 27.3523 1.89642 30.7279 5.27208C34.1036 8.64773 36 13.2261 36 18C36 22.7739 34.1036 27.3523 30.7279 30.7279C27.3523 34.1036 22.7739 36 18 36C13.2261 36 8.64773 34.1036 5.27208 30.7279C1.89642 27.3523 0 22.7739 0 18ZM16.8 9.6C15.6668 9.59986 14.5497 9.86717 13.5393 10.3802C12.5289 10.8932 11.6539 11.6375 10.9854 12.5525C10.3169 13.4674 9.87385 14.5273 9.6922 15.6458C9.51054 16.7643 9.59545 17.9099 9.94002 18.9894C10.2846 20.0689 10.8791 21.0518 11.6752 21.8582C12.4712 22.6646 13.4464 23.2718 14.5214 23.6302C15.5963 23.9887 16.7407 24.0884 17.8615 23.9212C18.9822 23.754 20.0477 23.3246 20.9712 22.668L24.3528 26.0496L26.0496 24.3528L22.668 20.9712C23.4335 19.8941 23.8879 18.6271 23.9813 17.309C24.0748 15.9909 23.8036 14.6725 23.1976 13.4982C22.5917 12.3239 21.6742 11.3391 20.5458 10.6515C19.4173 9.96389 18.1214 9.60012 16.8 9.6Z" fill="white"/>
</g>
<rect x="0.5" y="0.5" width="35" height="35" rx="17.5" stroke="#5299CC"/>
</g>
<defs>
<clipPath id="clip0_119_14">
<rect width="36" height="36" rx="18" fill="white"/>
</clipPath>
</defs>
</svg>
